<svg xmlns="http://www.w3.org/2000/svg" width="46.81" height="51.859" viewBox="0 0 46.81 51.859">
  <path d="M55.652,66.974a7.8,7.8,0,0,1-15.5,0h-10.6a5.048,5.048,0,1,1-.007-10.1.461.461,0,0,0,.455-.459V45.4A17.9,17.9,0,0,1,42.4,28.371v-.864a5.507,5.507,0,1,1,11.014,0v.864A17.905,17.905,0,0,1,65.8,45.4V56.419a.452.452,0,0,0,.455.459,5.048,5.048,0,1,1-.007,10.1Zm-2.782,0H42.939a5.05,5.05,0,0,0,9.931,0ZM44.118,30.738A15.148,15.148,0,0,0,32.76,45.4V56.419a3.213,3.213,0,0,1-3.209,3.212,2.295,2.295,0,1,0,.007,4.589H66.251a2.295,2.295,0,1,0,.007-4.589,3.206,3.206,0,0,1-3.209-3.212V45.4A15.147,15.147,0,0,0,51.691,30.738l-1.033-.265V27.507a2.754,2.754,0,1,0-5.507,0v2.965Z" transform="translate(-24.5 -22)" />
</svg>
