<?xml version="1.0" encoding="UTF-8"?>
<svg fill="#FFFFFF" width="100pt" height="100pt" version="1.1" viewBox="0 0 100 100" xmlns="http://www.w3.org/2000/svg">
 <g>
  <path d="m62.523 52.008h-25.047c-0.46484 0-0.90234 0.22266-1.1836 0.59766-0.27734 0.37109-0.35938 0.85938-0.22656 1.3008l1.6992 5.5781c0.1875 0.62109 0.75781 1.043 1.4062 1.043h21.648c0.64844 0 1.2188-0.42188 1.4062-1.043l1.6953-5.5781c0.13672-0.44531 0.054687-0.92969-0.22656-1.3008-0.26953-0.375-0.71094-0.59766-1.1719-0.59766zm-2.7891 5.5742h-19.469l-0.80078-2.6367h21.074z"/>
  <path d="m86.938 39.66c0.22266-1.5156-0.61719-3.4609-3.7148-3.9531-3.3438-0.53125-6.6953 0.58594-8.4844 1.3438-3.668-8.4453-7.3594-12.574-11.234-12.574l-27.012 0.003907c-3.875 0-7.5625 4.1289-11.23 12.574-1.7891-0.75781-5.1367-1.8711-8.4844-1.3438-3.0977 0.48828-3.9375 2.4336-3.7148 3.9531 0.23828 1.6211 1.6758 3.1445 3.7852 3.8711-1.6914 1.668-2.8984 3.6289-2.8984 5.3867l-0.003907 10.883c0 3.7969 1.7695 6.2695 4.9023 7.1367v5.4102c0 1.7461 1.4219 3.168 3.168 3.168h8.0156c1.7461 0 3.168-1.4219 3.168-3.168v-5.0508h33.602l-0.003906 5.0508c0 1.7461 1.4219 3.168 3.168 3.168h8.0117c1.75 0 3.168-1.4219 3.168-3.168v-5.4141c3.1328-0.86328 4.9023-3.3398 4.9023-7.1367v-10.883c0-1.7617-1.2109-3.7227-2.8984-5.3867 2.1133-0.72656 3.5508-2.25 3.7891-3.8711zm-50.445-12.242h27.008c1.6211 0 4.9531 1.75 9.4336 12.973-1.043 0.53906-2.0469 1.2852-3.0898 2.0859-1.8906 1.4414-3.8438 2.9375-5.9688 2.9375h-27.75c-2.1289 0-4.0859-1.4922-5.9727-2.9375-1.043-0.79687-2.0469-1.543-3.0898-2.082 4.4805-11.223 7.8125-12.977 9.4297-12.977zm-20.52 11.812c-0.035156-0.23438 0.51172-0.49609 1.2656-0.61719 2.5273-0.40234 5.1875 0.44922 6.6992 1.0742-1.1484 0.11719-2.4492 0.58594-3.7383 1.3125-2.5781 0.25391-4.1289-1.0977-4.2266-1.7695zm14.285 33.121c0 0.125-0.10156 0.22656-0.22656 0.22656h-8.0156c-0.125 0-0.22656-0.10156-0.22656-0.22656v-5.0508h8.4648zm47.723 0.23047h-8.0117c-0.125 0-0.22656-0.10156-0.22656-0.22656v-5.0508h8.4648v5.0469c0 0.12891-0.10156 0.23047-0.22656 0.23047zm5.1289-12.777c0 3.1562-1.4258 4.5586-4.6172 4.5586l-56.984-0.003906c-3.1953 0-4.6172-1.4023-4.6172-4.5586v-10.883c0-2.0156 4.7383-6.332 7.5469-6.332 0.14062 0 0.26172 0.015624 0.36719 0.042968 1.043 0.26172 2.2656 1.1953 3.5586 2.1836 2.1719 1.6641 4.6328 3.543 7.7578 3.543h27.754c3.125 0 5.5859-1.8789 7.7578-3.543 1.2969-0.98828 2.5195-1.9219 3.5586-2.1836 0.10547-0.027344 0.23047-0.042968 0.36719-0.042968 2.8086 0 7.5469 4.3164 7.5469 6.332zm-3.3047-18.805c-1.2852-0.72656-2.5898-1.1992-3.7383-1.3125 1.5117-0.61719 4.1719-1.4688 6.6992-1.0742 0.75391 0.12109 1.2969 0.38281 1.2656 0.61719-0.10547 0.67188-1.6562 2.0234-4.2266 1.7695z"/>
  <path d="m26.027 49.379c-2.918 0-5.2891 2.3711-5.2891 5.2891s2.3711 5.293 5.2891 5.293c2.918 0 5.2891-2.375 5.2891-5.293s-2.375-5.2891-5.2891-5.2891zm0 7.6406c-1.2969 0-2.3477-1.0586-2.3477-2.3516s1.0547-2.3477 2.3477-2.3477c1.293 0 2.3477 1.0547 2.3477 2.3477s-1.0547 2.3516-2.3477 2.3516z"/>
  <path d="m73.973 49.379c-2.9141 0-5.2891 2.3711-5.2891 5.2891s2.375 5.293 5.2891 5.293c2.918 0 5.2891-2.375 5.2891-5.293s-2.3711-5.2891-5.2891-5.2891zm0 7.6406c-1.2969 0-2.3477-1.0586-2.3477-2.3516s1.0547-2.3477 2.3477-2.3477c1.2969 0 2.3477 1.0547 2.3477 2.3477s-1.0508 2.3516-2.3477 2.3516z"/>
 </g>
</svg>
