<svg width="100pt" height="100pt" version="1.1" viewBox="0 0 100 100" xmlns="http://www.w3.org/2000/svg">
  <path d="m96.348 51.953c-0.33594-0.29688-0.78516-0.43359-1.2305-0.37891l-0.39063 0.046875v0.003906c-6.8281 0.85938-13.641-1.7383-18.164-6.9297v-24.383c0-0.03125-0.015625-0.0625-0.019531-0.09375-0.007813-0.14062-0.035157-0.27734-0.082031-0.40625-0.015626-0.050781-0.03125-0.097656-0.050782-0.14453v-0.003907c-0.074218-0.16797-0.17969-0.32422-0.3125-0.45703l-15.625-15.625c-0.13281-0.12891-0.28516-0.23438-0.45312-0.3125-0.050781-0.019531-0.10547-0.039062-0.15625-0.054687-0.125-0.042969-0.25781-0.066406-0.39062-0.078125-0.027344 0.007812-0.0625-0.011719-0.097656-0.011719h-54.688c-0.86328 0-1.5625 0.69922-1.5625 1.5625v90.625c0 0.41406 0.16406 0.8125 0.45703 1.1055s0.69141 0.45703 1.1055 0.45703h70.312c0.31641 0 0.62891-0.097656 0.89062-0.27734l10.887-7.5352c6.3242-4.3789 10.098-11.582 10.098-19.273v-16.664c0-0.44922-0.19141-0.875-0.52734-1.1719zm-25.121-33.203h-10.289v-10.289zm-64.977-12.5h51.562v14.062c0 0.41406 0.16406 0.8125 0.45703 1.1055s0.69141 0.45703 1.1055 0.45703h14.062v22.82c-4.5234 5.1914-11.336 7.793-18.164 6.9297l-0.39063-0.046875v-0.003906c-0.066406 0.003906-0.13281 0.007812-0.19531 0.019531v-0.03125h-15.625v3.125h14.062v3.125h-25v3.125h25v7.8125h-18.75v3.125h18.879c0.089844 1.0508 0.25 2.0938 0.48047 3.125h-41.234v3.125h42.16c0.41797 1.0781 0.91797 2.1211 1.4961 3.125h-12.406v3.125h14.52c1.4141 1.7969 3.082 3.375 4.9531 4.6875l6.7773 4.6875h-63.75zm87.5 63.539c0 6.6641-3.2695 12.906-8.75 16.699l-10 6.9258-10-6.9219v-0.003907c-5.4805-3.793-8.75-10.035-8.75-16.699v-14.934c7.0078 0.49219 13.871-2.1445 18.75-7.1992 4.8789 5.0508 11.742 7.6875 18.75 7.207z" />
  <path d="m89.23 57.879c-4.8242-0.52344-9.4141-2.332-13.293-5.2461-0.55469-0.41406-1.3203-0.41406-1.875 0-3.8789 2.9141-8.4688 4.7227-13.289 5.2461-0.79688 0.085938-1.3984 0.75391-1.3984 1.5508v10.359c0 5.6406 2.7695 10.922 7.4062 14.133l7.332 5.0742c0.53516 0.37109 1.2422 0.37109 1.7773 0l7.332-5.0781c4.6367-3.2109 7.4023-8.4883 7.4023-14.129v-10.359c0-0.79688-0.60156-1.4648-1.3945-1.5508zm-1.7305 11.91c0 4.6133-2.2656 8.9375-6.0586 11.562l-6.4414 4.457-6.4414-4.4609v0.003906c-3.793-2.6289-6.0586-6.9492-6.0586-11.562v-8.9883c4.4883-0.69922 8.7656-2.4062 12.5-4.9922 3.7344 2.5859 8.0117 4.293 12.5 4.9922z" />
  <path d="m68.125 72.188-1.875 2.5 6.25 4.6875c0.68359 0.51172 1.6484 0.38281 2.1719-0.28906l10.938-14.062-2.4648-1.918-10 12.852z" />
  <path d="m26.562 10.938h25v3.125h-25z" />
  <path d="m26.562 17.188h25v3.125h-25z" />
  <path d="m12.5 26.562h23.438v3.125h-23.438z" />
  <path d="m12.5 32.812h31.25v3.125h-31.25z" />
  <path d="m12.5 39.062h29.688v3.125h-29.688z" />
  <path d="m39.062 26.562h28.125v3.125h-28.125z" />
  <path d="m46.875 32.812h20.312v3.125h-20.312z" />
  <path d="m46.875 39.062h-1.5625v3.125h21.875v-3.125z" />
  <path d="m12.5 45.312h54.688v3.125h-54.688z" />
  <path d="m12.5 51.562h23.438v3.125h-23.438z" />
  <path d="m12.5 68.75h18.75v3.125h-18.75z" />
  <path d="m12.5 57.812h12.5v3.125h-12.5z" />
  <path d="m12.5 81.25h28.125v3.125h-28.125z" />
</svg>
