<?xml version="1.0" encoding="UTF-8"?>
<svg fill="#FFFFFF" width="100pt" height="100pt" version="1.1" viewBox="0 0 100 100" xmlns="http://www.w3.org/2000/svg">
 <path d="m87 5c0.52344 0 1 0.47656 1 1v88c0 0.52344-0.47656 1-1 1h-74c-0.52344 0-1-0.47656-1-1v-62c0-0.52344 0.47656-1 1-1h19v-25c0-0.52344 0.47656-1 1-1zm-1 2h-52v86h20v-17c0-0.52344 0.47656-1 1-1h10c0.52344 0 1 0.47656 1 1v17h20zm-5 4c0.52344 0 1 0.47656 1 1v10c0 0.52344-0.47656 1-1 1h-10c-0.52344 0-1-0.47656-1-1v-10c0-0.52344 0.47656-1 1-1zm-16 0c0.52344 0 1 0.47656 1 1v10c0 0.52344-0.47656 1-1 1h-10c-0.52344 0-1-0.47656-1-1v-10c0-0.52344 0.47656-1 1-1zm-16 0c0.52344 0 1 0.47656 1 1v10c0 0.52344-0.47656 1-1 1h-10c-0.52344 0-1-0.47656-1-1v-10c0-0.52344 0.47656-1 1-1zm31 2h-8v8h8zm-16 0h-8v8h8zm-16 0h-8v8h8zm33 14c0.52344 0 1 0.47656 1 1v10c0 0.52344-0.47656 1-1 1h-10c-0.52344 0-1-0.47656-1-1v-10c0-0.52344 0.47656-1 1-1zm-16 0c0.52344 0 1 0.47656 1 1v10c0 0.52344-0.47656 1-1 1h-10c-0.52344 0-1-0.47656-1-1v-10c0-0.52344 0.47656-1 1-1zm-16 0c0.52344 0 1 0.47656 1 1v10c0 0.52344-0.47656 1-1 1h-10c-0.52344 0-1-0.47656-1-1v-10c0-0.52344 0.47656-1 1-1zm31 2h-8v8h8zm-16 0h-8v8h8zm-16 0h-8v8h8zm-16 4h-18v60h18zm-5 4c0.52344 0 1 0.47656 1 1v8c0 0.52344-0.47656 1-1 1h-8c-0.52344 0-1-0.47656-1-1v-8c0-0.52344 0.47656-1 1-1zm-1 2h-6v6h6zm55 4c0.52344 0 1 0.47656 1 1v10c0 0.52344-0.47656 1-1 1h-10c-0.52344 0-1-0.47656-1-1v-10c0-0.52344 0.47656-1 1-1zm-16 0c0.52344 0 1 0.47656 1 1v10c0 0.52344-0.47656 1-1 1h-10c-0.52344 0-1-0.47656-1-1v-10c0-0.52344 0.47656-1 1-1zm-16 0c0.52344 0 1 0.47656 1 1v10c0 0.52344-0.47656 1-1 1h-10c-0.52344 0-1-0.47656-1-1v-10c0-0.52344 0.47656-1 1-1zm31 2h-8v8h8zm-16 0h-8v8h8zm-16 0h-8v8h8zm-21 6c0.52344 0 1 0.47656 1 1v8c0 0.52344-0.47656 1-1 1h-8c-0.52344 0-1-0.47656-1-1v-8c0-0.52344 0.47656-1 1-1zm-1 2h-6v6h6zm55 6c0.52344 0 1 0.47656 1 1v10c0 0.52344-0.47656 1-1 1h-10c-0.52344 0-1-0.47656-1-1v-10c0-0.52344 0.47656-1 1-1zm-16 0c0.52344 0 1 0.47656 1 1v10c0 0.52344-0.47656 1-1 1h-10c-0.52344 0-1-0.47656-1-1v-10c0-0.52344 0.47656-1 1-1zm-16 0c0.52344 0 1 0.47656 1 1v10c0 0.52344-0.47656 1-1 1h-10c-0.52344 0-1-0.47656-1-1v-10c0-0.52344 0.47656-1 1-1zm31 2h-8v8h8zm-16 0h-8v8h8zm-16 0h-8v8h8zm-21 4c0.52344 0 1 0.47656 1 1v8c0 0.52344-0.47656 1-1 1h-8c-0.52344 0-1-0.47656-1-1v-8c0-0.52344 0.47656-1 1-1zm-1 2h-6v6h6zm38 10h-8v16h8zm-37 2c0.52344 0 1 0.47656 1 1v8c0 0.52344-0.47656 1-1 1h-8c-0.52344 0-1-0.47656-1-1v-8c0-0.52344 0.47656-1 1-1zm-1 2h-6v6h6z"/>
</svg>
