<svg width="100pt" height="100pt" version="1.1" viewBox="0 0 100 100" xmlns="http://www.w3.org/2000/svg">
  <path d="m40.711 86.09h18.574v-4.8281h-18.574zm35.434-19.148c-0.65625-0.65625-0.65625-1.7188 0-2.375 0.57422-0.57422 1.6367-0.57422 2.293 0l6.3828 6.4648c0.65625 0.65625 0.65625 1.6367 0 2.293-0.57422 0.65625-1.6367 0.65625-2.293 0zm-54.582-2.375c0.65625-0.57422 1.6367-0.57422 2.293 0 0.65625 0.65625 0.65625 1.7188 0 2.375l-6.3828 6.3828c-0.65625 0.65625-1.7188 0.65625-2.375 0s-0.65625-1.6367 0-2.293zm-5.5664-23.402c0.89844 0 1.6367 0.73828 1.6367 1.6367 0 0.89844-0.73828 1.6367-1.6367 1.6367h-9.082c-0.89844 0-1.6367-0.73828-1.6367-1.6367 0-0.89844 0.73828-1.6367 1.6367-1.6367zm77.086 0c0.89844 0 1.6367 0.73828 1.6367 1.6367 0 0.89844-0.73828 1.6367-1.6367 1.6367h-9.082c-0.89844 0-1.6367-0.73828-1.6367-1.6367 0-0.89844 0.73828-1.6367 1.6367-1.6367zm-64.402-22.422c0.65625 0.65625 0.65625 1.6367 0 2.293s-1.7188 0.65625-2.293 0l-6.4648-6.3828c-0.65625-0.65625-0.65625-1.7188 0-2.375 0.65625-0.57422 1.7188-0.57422 2.375 0zm44.926 2.293c-0.65625 0.65625-1.6367 0.65625-2.293 0s-0.65625-1.6367 0-2.293l6.3828-6.4648c0.65625-0.57422 1.7188-0.57422 2.293 0 0.65625 0.65625 0.65625 1.7188 0 2.375zm-22.012-10.312c0 0.89844-0.73828 1.6367-1.6367 1.6367-0.89844 0-1.6367-0.73828-1.6367-1.6367v-9.082c0-0.89844 0.73828-1.6367 1.6367-1.6367 0.89844 0 1.6367 0.73828 1.6367 1.6367zm3.2734 86.824c0 0.65625-0.24609 1.3086-0.65625 1.7188-0.49219 0.41016-1.0625 0.73828-1.8008 0.73828h-4.9102c-0.65625 0-1.2266-0.32812-1.7188-0.73828-0.41016-0.49219-0.73828-1.0625-0.73828-1.7188h-1.8828c-1.6367 0-3.0273-0.65625-4.0898-1.7188-1.0625-0.98047-1.6367-2.4531-1.6367-4.0117v-12.273-0.24609c-0.082032-7.6094-3.1914-12.031-6.3008-16.285-3.1914-4.582-6.3828-9-6.3828-16.777 0-6.957 2.8633-13.258 7.3633-17.84 4.582-4.582 10.883-7.3633 17.84-7.3633s13.34 2.7812 17.84 7.3633c4.582 4.582 7.4453 10.883 7.4453 17.84 0 7.7734-3.1914 12.191-6.4648 16.777-3.0273 4.2539-6.1367 8.6758-6.2188 16.285v0.24609 12.273c0 1.5547-0.65625 3.0273-1.7188 4.0117-0.98047 1.0625-2.4531 1.7188-4.0117 1.7188h-1.9648zm-21.031-36.414c3.1914 4.418 6.3828 9 6.793 16.777h18.656c0.41016-7.7734 3.6836-12.355 6.875-16.777 2.9453-4.1719 5.8086-8.1836 5.8086-14.895 0-6.0547-2.4531-11.539-6.4648-15.547-3.9297-3.9297-9.4922-6.3828-15.547-6.3828-6.0547 0-11.539 2.4531-15.465 6.3828-4.0117 4.0117-6.4648 9.4922-6.4648 15.547 0 6.7109 2.8633 10.719 5.8086 14.895zm25.449 28.23h-18.574v2.4531c0 0.65625 0.24609 1.2266 0.65625 1.7188 0.49219 0.41016 1.0625 0.73828 1.8008 0.73828h13.668c0.65625 0 1.3086-0.32813 1.7188-0.73828 0.49219-0.49219 0.73828-1.0625 0.73828-1.7188v-2.4531z" />
</svg>
