<svg width="100pt" height="100pt" version="1.1" viewBox="0 0 100 100" xmlns="http://www.w3.org/2000/svg">
  <path d="m55.594 67.578c-0.027344-5.3398-2.0195-10.484-5.5938-14.453-2.875-3.1562-6.6055-5.4141-10.734-6.5-1.7969-0.46484-3.6445-0.70312-5.5-0.70312h-0.29688c-1.6328 0.027344-3.2578 0.23438-4.8438 0.625-5.3906 1.2656-10.105 4.5195-13.195 9.1172-3.0938 4.5938-4.3359 10.184-3.4766 15.656 0.85938 5.4688 3.75 10.414 8.1016 13.844 4.3477 3.4258 9.832 5.082 15.352 4.6367 5.5195-0.44531 10.668-2.9609 14.41-7.043 3.7461-4.0781 5.8086-9.4219 5.7773-14.961zm-14.359-14.984-0.42188-2.2031c0.60938 0.26172 1.2031 0.55078 1.7812 0.875l0.35938 0.1875c0.57031 0.32812 1.125 0.69141 1.6562 1.0781zm-7.5781-3.625c0.72656 0.007812 1.4492 0.054688 2.1719 0.14062l0.67188 0.10938 0.9375 0.17188 0.625 3.125h-6.7031l-0.65625-3.3594 0.40625-0.078125h0.42188c0.61328-0.078125 1.2266-0.125 1.8438-0.14062zm0 37.672c-6.0703 0.12891-11.832-2.6875-15.453-7.5625s-4.6602-11.203-2.7812-16.98 6.4375-10.285 12.234-12.098l0.875 4.4844c0.14453 0.74609 0.80469 1.2812 1.5625 1.2656h17.969c2.4688 2.9141 3.9805 6.5234 4.3281 10.328l-12.609 0.14062c-0.24219-0.98438-0.72656-1.8906-1.4062-2.6406-0.82812-0.93359-1.918-1.5977-3.125-1.9062-1.0273-0.25781-2.0977-0.25781-3.125 0-2.2461 0.52734-4.0352 2.2305-4.668 4.4531-0.63672 2.2188-0.023437 4.6094 1.6055 6.2461 1.6289 1.6367 4.0156 2.2695 6.2383 1.6445 2.2227-0.62109 3.9375-2.3945 4.4805-4.6406l12.594-0.14062c-0.36328 4.7227-2.4922 9.1328-5.9609 12.359-3.4688 3.2227-8.0234 5.0273-12.758 5.0469zm-0.28125-17.266h3.125c-0.55859 1.043-1.6445 1.6992-2.8281 1.7031-1.7969 0-3.25-1.4531-3.25-3.25 0-1.4922 1.0273-2.7891 2.4844-3.125 0.25-0.0625 0.50781-0.09375 0.76562-0.09375 0.27344 0 0.54688 0.03125 0.8125 0.09375 0.60156 0.17578 1.1445 0.51562 1.5625 0.98438 0.15625 0.17578 0.29297 0.37109 0.40625 0.57812h-3.125c-0.86328 0-1.5625 0.69922-1.5625 1.5625s0.69922 1.5625 1.5625 1.5625z" />
  <path d="m92.297 71.25h-4.1406l-3.0312-10.312c-1.4688-4.9375-6.0039-8.3281-11.156-8.3438h-0.96875c-0.77734-5.3945-5.4102-9.3906-10.859-9.375h-16.281c-2.1758-1.0859-4.4883-1.875-6.875-2.3438l-2.0938-10.859h13.188l1.75 2.5156c0.49219 0.70703 1.4648 0.88281 2.1719 0.39062s0.88281-1.4648 0.39062-2.1719l-2.2031-3.125c-0.29297-0.42578-0.78125-0.67578-1.2969-0.67188h-14.609l-2.1562-11.328c-0.78125-3.3359-3.5547-5.8281-6.9531-6.25-1.4023-0.17969-2.8203 0.14844-4 0.92188l-0.375-1.9062c-0.18359-1.1992-0.85938-2.2695-1.8594-2.9531-0.98828-0.66016-2.1953-0.89453-3.3594-0.65625l-3.7969 0.85938c-0.81641 0.21094-1.3203 1.0352-1.1328 1.8555 0.1875 0.82422 0.99219 1.3516 1.8203 1.1914l3.75-0.875c0.33594-0.066406 0.68359 0 0.96875 0.1875 0.28906 0.19141 0.48438 0.48828 0.54688 0.82812l2.125 10.938 4.1562 21.641c-6.5117 1.8789-12.098 6.0938-15.691 11.84s-4.9414 12.613-3.7812 19.293c1.1602 6.6758 4.7461 12.688 10.066 16.883 5.3242 4.1953 12.004 6.2812 18.77 5.8516 6.7617-0.42969 13.129-3.3398 17.879-8.1719 4.7461-4.8359 7.543-11.254 7.8516-18.023h2.8906c0.78125-0.003906 1.5508-0.14844 2.2812-0.42188l5.4219 8.8281c0.50781 0.83203 0.87891 1.7383 1.0938 2.6875-3.8359 0.9375-6.3438 4.625-5.8047 8.5352 0.53906 3.9141 3.9531 6.7852 7.9023 6.6484 3.9453-0.14062 7.1484-3.2422 7.4141-7.1836s-2.4922-7.4453-6.3867-8.1094c-0.26172-1.4883-0.78906-2.918-1.5625-4.2188l-5.4844-8.9688c0.35547-0.39062 0.66406-0.82031 0.92188-1.2812 1.1836-2.1055 1.125-4.6875-0.15625-6.7344l-1.9062-3.125h6.25c3.7656 0.007813 7.082 2.4844 8.1562 6.0938l2.7812 9.375h-0.23438c-2.5156 0-4.5547 2.0312-4.5625 4.5469v2.1875c0 0.41406 0.16406 0.8125 0.45703 1.1055s0.69141 0.45703 1.1055 0.45703h10.609c0.41406 0 0.8125-0.16406 1.1055-0.45703 0.29297-0.29297 0.45703-0.69141 0.45703-1.1055v-5.125c0-0.41406-0.16406-0.8125-0.45703-1.1055-0.29297-0.29297-0.69141-0.45703-1.1055-0.45703zm-13.078 16.359c0.011719 1.7188-0.9375 3.2969-2.4609 4.0977-1.5195 0.79688-3.3594 0.67969-4.7656-0.30469-1.4102-0.98438-2.1484-2.6719-1.9219-4.375 0.23047-1.7031 1.3906-3.1367 3.0078-3.7148v4.2969c0 0.86328 0.69922 1.5625 1.5625 1.5625s1.5625-0.69922 1.5625-1.5625v-4.2969c1.8086 0.65625 3.0117 2.375 3.0156 4.2969zm-55.188-73.125c-0.078125-0.46484 0.058594-0.94531 0.375-1.2969 0.51562-0.57422 1.2617-0.88672 2.0312-0.85938h0.26562c2.1094 0.22656 3.8477 1.75 4.3438 3.8125l4.6875 24.219h-0.65625-2.2344-0.20312c-0.80078 0.027344-1.5977 0.09375-2.3906 0.20312h-0.40625l-0.78125 0.0625-3.7812-19.688-0.28125-1.6562zm34.016 53.312c0.003906 6.1484-2.3125 12.07-6.4883 16.586-4.1758 4.5117-9.8984 7.2812-16.031 7.7539-6.1289 0.47266-12.211-1.3906-17.027-5.2109-4.8164-3.8203-8.0156-9.3203-8.9492-15.395-0.9375-6.0781 0.45703-12.285 3.9023-17.379 3.4414-5.0898 8.6836-8.6953 14.672-10.09 0.8125-0.19141 1.6367-0.33984 2.4688-0.4375l1.0156-0.09375c0.51562 0 1.0312-0.078125 1.5625-0.078125h1.4531 0.60938c0.70312 0 1.4219 0.10938 2.1094 0.21875 2.582 0.39062 5.0781 1.207 7.3906 2.4219 3.9453 2.0156 7.2656 5.0742 9.5938 8.8438 2.3359 3.7539 3.6016 8.0781 3.6562 12.5zm7.0312-10.391 1.9062 3.125c0.67188 1.0977 0.69922 2.4688 0.074219 3.5898-0.625 1.125-1.8047 1.8242-3.0898 1.832h-2.875c-0.23438-3.5586-1.1641-7.0352-2.7344-10.234h3.6719c1.2422-0.007812 2.3945 0.62891 3.0469 1.6875zm-3.0469-4.8125h-5.4531c-0.078125-0.125-0.17188-0.21875-0.25-0.32812-0.23438-0.35938-0.48438-0.70312-0.73438-1.0469l-0.46875-0.60938c-0.28125-0.34375-0.5625-0.67188-0.85938-1l-0.46875-0.53125c-0.35938-0.39062-0.73438-0.76562-1.1094-1.125l-0.3125-0.29688c-0.48438-0.46875-1-0.90625-1.5625-1.3281h11.344c2.0781-0.007813 4.0742 0.8125 5.5469 2.2812 1.1094 1.0938 1.8633 2.4922 2.1719 4.0156zm28.703 23.828h-7.4844v-0.625c0.007812-0.78906 0.64844-1.4219 1.4375-1.4219h6.0469z" />
</svg>
